HIERARCHY
ROOT Hips
{
  OFFSET 0.0 0.0 0.0
  CHANNELS 6 XPOSITION YPOSITION ZPOSITION ZROTATION XROTATION YROTATION 
  JOINT RightUpLeg
  {
    OFFSET -0.089458 -0.0866707 0.00101652
    CHANNELS 3 ZROTATION XROTATION YROTATION 
    JOINT RightLeg
    {
      OFFSET 0.0 -0.444227 0.013727
      CHANNELS 3 ZROTATION XROTATION YROTATION 
      JOINT RightFoot
      {
        OFFSET 0.00253549 -0.420924 -0.0146059
        CHANNELS 3 ZROTATION XROTATION YROTATION 
        End Site
        {
          OFFSET 0.0004 -0.0441509 0.084991
        }
      }
    }
  }
  JOINT Spine
  {
    OFFSET 0.0 0.118905 0.0
    CHANNELS 3 ZROTATION XROTATION YROTATION 
    JOINT Spine1
    {
      OFFSET 0.0 0.256574 0.00127663
      CHANNELS 3 ZROTATION XROTATION YROTATION 
      End Site
      {
        OFFSET -0.0029 0.2150836 0.02525291
      }
      JOINT RightArm
      {
        OFFSET -0.162727 -0.05365632 0.00102123
        CHANNELS 3 ZROTATION XROTATION YROTATION 
        JOINT RightForeArm
        {
          OFFSET -0.26364 0.00099144 -0.0142434
          CHANNELS 3 ZROTATION XROTATION YROTATION 
          End Site
          {
            OFFSET -0.220324 0.00085362 0.0102216
          }
        }
      }
      JOINT LeftArm
      {
        OFFSET 0.162727 -0.0536563199 0.00102123
        CHANNELS 3 ZROTATION XROTATION YROTATION 
        JOINT LeftForeArm
        {
          OFFSET 0.262597 0.00099144 -0.0142434
          CHANNELS 3 ZROTATION XROTATION YROTATION 
          End Site
          {
            OFFSET 0.220902 0.00085362 0.0102216
          }
        }
      }
    }
  }
  JOINT LeftUpLeg
  {
    OFFSET 0.089458 -0.0866707 0.00101652
    CHANNELS 3 ZROTATION XROTATION YROTATION 
    JOINT LeftLeg
    {
      OFFSET 0.0 -0.444227 0.013727
      CHANNELS 3 ZROTATION XROTATION YROTATION 
      JOINT LeftFoot
      {
        OFFSET -0.00253549 -0.420924 -0.0146059
        CHANNELS 3 ZROTATION XROTATION YROTATION 
        End Site
        {
          OFFSET -0.0004 -0.0441509 0.084991
        }
      }
    }
  }
}
MOTION
Frames: 19
Frame Time: 0.033333
1.23787677719 1.24247319432 -1.07900383613 2.29589978761 1.33894268701 82.2610703258 1.54070519443 -15.3040906845 4.19887842906 -1.26949855289 55.0969332985 -11.466146772 4.00625898362 -38.8584659053 1.62205530877 -8.68080416619 9.77973208478 -0.529457054552 2.5577865293 4.03610904472 -1.64088283193 76.7220259655 -16.4639473056 8.35902968552 4.47516000787 53.0219764701 12.7838644327 -107.429757342 -51.2692406461 -41.4335223545 -171.76569287 67.1704093924 169.807026843 -6.2747680051 -16.9300667353 -0.219183291766 0.455743038348 31.3149488538 11.8183727973 -10.5963913369 -52.0866367048 -11.0194148342 
1.25613040456 1.25062852969 -1.07978115583 2.38511038246 0.913046241312 82.028051592 2.11133377553 -18.2812608607 4.37709599375 -1.17923781645 54.6331429633 -11.9580151611 3.87267200939 -39.7149818725 1.68847004054 -9.24837154188 10.3351237945 -0.833164404205 3.37701329218 3.98218000547 -2.24469428629 75.612973999 -17.0817788972 7.01846504203 4.22533644747 52.6575961232 12.9455939207 -106.999393952 -49.0716819222 -42.2508432811 -172.926087369 69.240175277 169.703768043 -5.87413600226 -14.1859238306 0.209551324314 0.426723298792 28.6922894012 11.5245858705 -10.8001384411 -52.0007060949 -11.0290197877 
1.27426658388 1.25782020652 -1.08047076523 2.30570708548 0.465079159891 81.9122798856 2.56006183607 -20.8901677274 4.27536160672 -1.03180540845 52.012262775 -12.059233442 4.38414432209 -40.3637439757 1.73533356926 -9.62128108754 10.8139712817 -1.17845266486 4.1568001949 3.85798112626 -2.85384897628 74.5603325649 -17.5343096655 5.60934835116 3.93942814391 52.0180103791 13.3009037765 -106.826918015 -47.2565352446 -43.254949391 -174.931294305 71.024357292 170.724690078 -5.41262182759 -11.80651132 0.55145842789 0.395503624674 26.4227626816 11.2513791575 -11.1009792457 -52.0267222854 -11.0879139476 
1.29282083578 1.26324981017 -1.08101449568 2.24392098081 0.117214210368 81.7320926651 2.80986469246 -23.0573560152 3.86817390294 -0.975542792383 47.9399776333 -11.2383753311 4.68805102789 -40.7244735865 1.76877417544 -9.8106796719 11.2599075025 -1.43768032854 4.64358094686 3.60225286732 -3.28078659894 73.5816894002 -18.8506732413 4.19115007001 3.97202650238 52.3592158942 13.1110902581 -106.642024795 -45.6609893941 -44.168179834 -177.028367286 72.6592723528 171.973084734 -5.19519940395 -9.4292802011 0.470012690906 0.427512879332 24.1793272845 11.4543262759 -11.3609405144 -52.1405064068 -11.1684128497 
1.31207835943 1.26677456627 -1.08113947696 2.13581637516 -0.122524068798 81.6474939421 2.93193852906 -24.7749368556 3.34623155058 -0.956505987949 42.9552714261 -10.1051598629 5.03038821994 -41.3022392884 1.82325325836 -9.97087919757 11.4877250471 -1.6895849622 5.10592755084 3.41304616859 -3.66184456028 72.5605966099 -20.4526582526 2.87098976289 4.22588713147 52.9309812749 12.6036925801 -106.508719993 -44.2580275574 -45.0589218791 -178.821811038 73.9008094987 173.051571604 -5.19900168488 -7.19604569158 -0.0929578874281 0.516386206915 22.1504417897 12.0006099283 -11.5978396494 -52.2087058457 -11.2324808778 
1.33216121332 1.26865776139 -1.08079576464 1.9855334304 -0.326280778014 81.9104015836 2.8817953356 -26.0638567312 2.75139336397 -0.86426316263 37.6468244975 -9.57530366914 5.44578709177 -42.0275302462 1.89627203602 -10.076730908 11.5667785103 -2.02994011873 5.57636237945 3.26176815064 -4.11920854126 71.4973000807 -21.8869723651 1.68534202735 4.44832889038 54.0248053347 12.1313739 -106.250880351 -42.905875498 -45.6456487892 178.748782655 74.8205422817 174.941826457 -5.24013692605 -5.27046766172 -0.527771598653 0.808507688105 20.7344889332 12.0619621025 -11.906216714 -52.383217179 -11.3421600555 
1.35327469341 1.26906310286 -1.07991792677 1.84253680338 -0.440466279732 82.2817111574 2.78203679424 -27.2294609565 2.05948751708 -0.874591635955 33.1704175532 -9.297597569 5.45118251432 -42.7285979381 1.95982950756 -10.2321194192 11.5674239632 -2.30073748253 6.11445748887 3.13250746093 -4.51972869975 70.4882420836 -23.1344910491 0.560500424413 4.66357888698 55.050590465 11.6922977505 -106.167237855 -41.7038509965 -46.1688242041 176.845564103 75.4083347013 176.5659908 -5.26841903185 -3.52435178507 -0.499066981614 1.13714464126 19.7784075909 11.5880878468 -12.2929701993 -52.7233230336 -11.5231327478 
1.37538154846 1.26832777969 -1.07837103943 1.74310184223 -0.491159383463 82.5902649532 2.67095636055 -28.4166400418 1.32386173604 -0.829421247096 30.4466610556 -8.58232564497 5.82794727489 -43.2948069599 2.02777196056 -10.3761424956 11.4992211093 -2.43978732743 6.59692454948 3.11346553385 -4.78387132487 69.7106455372 -24.5911859839 -0.420350065286 4.9603736583 56.0529275559 11.089885311 -106.133346456 -40.6808252626 -46.5103985494 175.447875172 75.7644266137 177.787556473 -5.20431301074 -1.92077832787 -0.239730355079 1.30899038651 19.2864461405 10.9405603003 -12.8348458184 -53.1534644419 -11.768706223 
1.39864759122 1.26708773091 -1.07618810312 1.69883656016 -0.60156709688 82.9733497732 2.71428900163 -29.4711802685 0.785883646975 -0.692166514651 29.4642886077 -7.94649821249 6.07648163708 -43.6694530812 2.08338357423 -10.2650802046 11.4120175228 -2.57990844481 6.89511737515 3.17838221305 -5.01054609351 69.2286390875 -26.1716866352 -1.15595017976 5.36793616872 57.0202018706 10.3006339005 -106.036699279 -39.9300235483 -46.6052801223 174.896514982 75.9037624728 178.194444502 -4.97075469207 -0.460005183112 0.0428564021433 1.43065718652 19.329250936 10.2172577813 -13.3914439103 -53.6304199667 -12.0408670633 
1.4231259703 1.26617755408 -1.07358717443 1.69989395882 -0.848294073629 83.4043347098 3.04553588746 -30.3357968401 0.58667547022 -0.443860296781 29.6524705646 -8.47897292999 5.06843194673 -43.4742121237 2.01127982848 -9.81212084182 11.2742884657 -2.71285466191 7.10590939265 3.3201321171 -5.1961274559 68.9767690316 -27.4126449225 -1.66074256744 5.80658201628 57.8228925321 9.52983253852 -106.529989202 -39.7431939689 -46.7857371353 175.49798144 75.214254876 177.642018802 -4.6113774587 0.963439377009 0.202876962175 1.61109637696 19.6475497042 9.55072779474 -14.1994211382 -53.9919931059 -12.3327748343 
1.44880839077 1.26553408152 -1.07061355171 1.80470972165 -1.11532218686 83.7572505842 3.59725957215 -30.9192657499 0.816541964921 -0.325011376684 30.7068741875 -9.4445294522 3.7058288441 -42.8771238167 1.89499286965 -9.09085201169 11.1094717322 -2.76136693426 7.15947557811 3.45241089665 -5.22806499358 69.0236651105 -28.3285989034 -1.79097976076 6.42310519972 58.5528553393 8.58783077744 -107.676033473 -40.1631037538 -47.0268462281 176.982345471 73.7212028442 176.489533662 -4.22642159377 2.33491169371 0.231818274617 1.7340617667 20.3318868477 9.11184032924 -15.4456497702 -54.0836815653 -12.6201968785 
1.47540030097 1.26480500225 -1.06706480607 2.05890780478 -1.26349449645 84.1087867604 3.99834023305 -31.1177612925 1.09794885365 -0.376356576718 32.7215272757 -9.66880639756 3.05149970982 -42.5003603368 1.84437049573 -8.42900497357 11.0010006442 -2.79039502479 7.1428304071 3.5500772657 -5.21500097613 69.5127681268 -29.2581876494 -1.37007575646 7.22235984913 59.4562434796 7.37573686959 -108.761084154 -40.9155071474 -46.9170372768 178.708293294 72.2131790378 175.290043161 -3.83878573337 3.38433397431 0.249552674034 1.65516443732 21.8675216939 8.72167857951 -16.5961131736 -53.6299520987 -12.6754138353 
1.5024392135 1.26386412115 -1.06272926639 2.32815620974 -1.30111603217 84.6890113304 4.01816357645 -30.9367817701 0.899215962017 -0.403647371279 35.5120010611 -9.32551511346 2.69851318564 -42.9601208604 1.85813396724 -8.02802591174 10.8775142391 -2.88507275919 7.25628283742 3.6329396266 -5.30062465445 70.3726547923 -30.102078012 -0.589908444214 7.8211779016 60.3057892388 6.4223252775 -109.322477893 -41.735823112 -46.2930311942 -179.409603457 71.1071186941 174.011062918 -3.36219605055 3.73988672863 0.508451554812 1.47040835388 24.4774343059 8.05404637116 -16.8893519777 -52.3981855385 -12.2463046394 
1.52948217944 1.26259840773 -1.05762992334 2.41922376227 -1.35278225109 85.5173698428 4.01675655748 -30.4085554302 0.453053331197 -0.463219800972 38.298270865 -9.22639540822 2.34476680291 -44.5987310536 1.92982341932 -7.55733623169 10.6034708279 -2.9763855582 7.36090426003 3.62856190223 -5.33048496084 71.3618505992 -30.4068376376 0.168902200521 7.85577110219 60.3725270172 6.35189706253 -109.597037837 -42.6053061934 -45.4628695119 -177.020471587 70.0717576386 172.273954567 -2.69936546518 3.26067724136 1.07005649552 1.40937175575 27.8707866913 7.25250574281 -16.2816956604 -50.4809548536 -11.4106352633 
1.55590655383 1.2615135053 -1.05202118191 2.38450505695 -1.54702834878 86.2193288743 4.50244063719 -29.517376253 0.490973954499 -0.60620191384 40.369962863 -10.011278059 2.13311951766 -47.0033606226 2.0436483084 -6.73419726453 10.3298910158 -2.97163985739 7.35888252404 3.55871532056 -5.1845554079 72.4652266785 -30.1837295084 1.06966407981 7.50193229847 59.6406107759 6.92143452091 -109.92425171 -43.7155602732 -44.7101997409 -174.444697968 68.8966714032 170.422713755 -1.87256957205 2.24559437715 1.39304664314 1.47149008509 31.5098653773 6.92519155184 -15.3489411217 -48.4196754791 -10.5437724133 
1.58175485984 1.261802987 -1.04596625885 2.36665329033 -1.88320780512 86.5563440684 5.52456350545 -28.1585784195 1.42370533461 -0.753050340665 41.380322011 -11.514151049 2.11647541387 -49.1752719862 2.16003387808 -5.77158754206 10.1438870355 -2.82860566433 7.22235387272 3.55125590021 -4.87284862607 73.9139576128 -30.2549308154 2.73588179092 7.50592881291 59.6575223243 6.89544437046 -110.05603338 -45.1614771695 -43.8577511513 -172.422060389 67.8583323852 169.104296 -0.960088422169 0.965199217937 1.51556358826 1.52148280095 35.1282332222 6.92604532549 -14.4985689097 -47.6095638171 -10.1447075119 
1.60741688124 1.26453363639 -1.03955631329 2.41280936087 -2.02728659024 86.7403357042 6.41991464761 -26.2827335583 2.59567017353 -0.839462585671 41.4358070527 -12.921230636 2.21746744471 -50.7372337966 2.2617166118 -5.14554264802 10.013001828 -2.64409365343 6.95814508015 3.57341111289 -4.5597565965 75.8360138264 -30.7625914557 5.22046555435 8.03094752516 60.708524513 6.18866194467 -109.753906792 -46.957810091 -42.7675061107 -171.595662141 67.0573219503 168.979153274 -0.254150378521 -0.576824309725 0.933060296406 1.09448018477 38.6491718337 7.09340459694 -15.5074476143 -48.4573064063 -10.5676874669 
1.63202883727 1.26891293517 -1.03325353822 2.48763237568 -2.00922116677 87.0252911964 6.97871803682 -24.0586583325 3.462923625 -0.862222323451 40.7839884399 -14.1099004101 2.44437913554 -51.9248773347 2.36794419609 -4.63187357574 10.01483488 -2.52153594061 6.79394904005 3.58971861642 -4.30997145591 77.8178683461 -30.6086424069 7.89245946332 8.04532507336 61.2335816451 6.23990202383 -109.181400336 -49.0380842216 -41.5284380783 -172.110726706 66.5639978771 170.05822754 0.4361798291 -2.81646308209 0.528883852271 0.37253652662 42.3935874046 6.18931380085 -17.3144168479 -47.8793392138 -10.5715371322 
1.65540318075 1.27431570956 -1.02718380943 2.50748880281 -1.93442653994 87.4746834928 7.28889613693 -21.6508646783 3.91445996051 -0.99961184541 39.4626439487 -15.0944602261 2.76520827534 -52.9075605563 2.4850236703 -3.99532598519 10.1458899884 -2.36070611656 6.58472369719 3.50808398202 -3.98625848218 79.0539276802 -28.359940934 9.80330989779 6.63614563013 59.257204937 8.42107597772 -108.575910896 -51.0135627598 -40.4585196806 -172.588471118 65.7201075146 171.210548755 1.30486826062 -6.27987655972 1.45961868271 0.466064521401 47.2336131297 2.85627710853 -17.7906159292 -45.2922513864 -9.67430982248 
